<svg xmlns="http://www.w3.org/2000/svg" viewBox="0 0 24 24">
<g id="Pot_2">
	<g>
		<g>
			<path d="M15.5,21h-8C4.468,21,2,18.533,2,15.5v-6C2,9.224,2.224,9,2.5,9h18C20.776,9,21,9.224,21,9.5v6
				C21,18.533,18.532,21,15.5,21z M3,10v5.5C3,17.981,5.019,20,7.5,20h8c2.481,0,4.5-2.019,4.5-4.5V10H3z"/>
		</g>
		<g>
			<path d="M7.5,19C5.57,19,4,17.43,4,15.5C4,15.224,4.224,15,4.5,15S5,15.224,5,15.5C5,16.878,6.121,18,7.5,18
				C7.776,18,8,18.224,8,18.5S7.776,19,7.5,19z"/>
		</g>
		<g>
			<path d="M20.5,12c-0.183,0-0.359-0.101-0.447-0.276c-0.123-0.247-0.023-0.547,0.224-0.671l2-1
				c0.248-0.123,0.547-0.024,0.671,0.224c0.123,0.247,0.023,0.547-0.224,0.671l-2,1C20.651,11.983,20.575,12,20.5,12z"/>
		</g>
		<g>
			<path d="M2.5,12c-0.075,0-0.151-0.017-0.224-0.053l-2-1c-0.247-0.124-0.347-0.424-0.224-0.671
				c0.125-0.247,0.424-0.346,0.671-0.224l2,1c0.247,0.124,0.347,0.424,0.224,0.671C2.859,11.899,2.683,12,2.5,12z"/>
		</g>
		<g>
			<path d="M20.5,10h-18C2.224,10,2,9.776,2,9.5C2,7.019,4.019,5,6.5,5h10C18.981,5,21,7.019,21,9.5C21,9.776,20.776,10,20.5,10z
				 M3.035,9h16.93C19.721,7.306,18.26,6,16.5,6h-10C4.74,6,3.279,7.306,3.035,9z"/>
		</g>
		<g>
			<path d="M13.5,6C13.224,6,13,5.776,13,5.5C13,4.673,12.327,4,11.5,4S10,4.673,10,5.5C10,5.776,9.776,6,9.5,6S9,5.776,9,5.5
				C9,4.122,10.121,3,11.5,3S14,4.122,14,5.5C14,5.776,13.776,6,13.5,6z"/>
		</g>
	</g>
</g>
</svg>
